<?xml version="1.0" encoding="UTF-8" standalone="no"?>
<!-- Created with Inkscape (http://www.inkscape.org/) -->

<svg
   width="210mm"
   height="297mm"
   viewBox="0 0 793.70081 1122.5197"
   version="1.1"
   id="svg1"
   xml:space="preserve"
   inkscape:version="1.4 (86a8ad7, 2024-10-11)"
   sodipodi:docname="logo.svg"
   xmlns:inkscape="http://www.inkscape.org/namespaces/inkscape"
   xmlns:sodipodi="http://sodipodi.sourceforge.net/DTD/sodipodi-0.dtd"
   xmlns="http://www.w3.org/2000/svg"
   xmlns:svg="http://www.w3.org/2000/svg"><sodipodi:namedview
     id="namedview1"
     pagecolor="#505050"
     bordercolor="#eeeeee"
     borderopacity="1"
     inkscape:showpageshadow="0"
     inkscape:pageopacity="0"
     inkscape:pagecheckerboard="0"
     inkscape:deskcolor="#505050"
     inkscape:document-units="mm"
     inkscape:zoom="1.0167041"
     inkscape:cx="474.5727"
     inkscape:cy="435.22988"
     inkscape:window-width="1920"
     inkscape:window-height="1009"
     inkscape:window-x="1912"
     inkscape:window-y="-8"
     inkscape:window-maximized="1"
     inkscape:current-layer="layer1" /><defs
     id="defs1" /><g
     inkscape:label="Capa 1"
     inkscape:groupmode="layer"
     id="layer1"><path
       id="path1"
       style="fill:#061e14;fill-opacity:1"
       d="m 227.66602,250.55078 c -5.68183,0.11788 -10.95928,2.69963 -15.5617,5.85198 -8.19422,5.5433 -15.18447,12.6191 -23.09555,18.53204 -4.28297,3.21486 -8.62087,6.42902 -13.4183,8.84357 -0.92379,0.49152 -1.93656,0.75566 -2.98388,0.71067 -5.27149,0.31683 -10.02051,3.45717 -13.14937,7.59407 -4.61521,6.0483 -6.54123,13.81742 -6.40237,21.3422 0.008,3.74715 0.84982,7.40954 1.52228,11.07449 1.81887,10.33657 3.31911,20.72716 4.65139,31.13692 0.47815,3.80389 0.8345,7.80179 1.66368,11.61859 1.69215,8.24936 5.24276,16.26041 11.04526,22.44884 6.34158,6.86199 14.94936,11.19866 23.82566,13.79159 11.93552,3.48394 24.44339,4.35114 36.81899,4.5163 5.93157,0.12579 12.03657,0.3029 17.98508,1.22685 3.92533,0.66567 8.09488,1.6052 11.08696,4.41513 1.9921,1.95908 3.2405,4.68387 5.73452,6.11942 1.77634,1.10214 4.10019,0.78019 5.75256,-0.40258 2.94094,-2.04718 5.08038,-4.99317 7.33132,-7.73115 5.56009,-7.15014 11.00239,-14.39166 16.51183,-21.58112 -4.94946,-4.91106 -9.82346,-9.89999 -14.82309,-14.75911 -3.80637,-3.62689 -8.23741,-6.82329 -13.39895,-8.14622 -6.16955,-1.63555 -12.62471,-1.32605 -18.94025,-1.0987 -8.169,0.32067 -16.35321,0.68947 -24.55357,0.24097 -4.79784,-0.34168 -9.78466,-0.84576 -14.07487,-3.19769 -3.64447,-1.97508 -5.95357,-5.65194 -7.42054,-9.41669 -0.45573,-1.12634 -0.82177,-2.18735 -1.21282,-3.39228 -1.7945,-5.85225 -3.13324,-11.83681 -4.31651,-17.83931 -0.61485,-3.55872 -1.34233,-7.1796 -0.97816,-10.80503 0.11924,-0.94808 0.41486,-2.16978 1.52735,-2.34961 3.27646,-1.50391 6.1349,-3.75644 9.01774,-5.88972 7.02401,-5.33847 13.40753,-11.44373 20.02159,-17.26705 0.61254,-0.54735 1.22508,-1.0947 1.83762,-1.64206 8.22729,3.11003 16.41854,6.31733 24.6702,9.36155 7.81214,2.82439 15.96857,4.82935 24.28262,5.30324 8.91902,0.58308 17.84134,-0.26964 26.71795,-1.073 3.02672,-0.24017 5.96926,-0.40744 9.03285,-0.49912 3.871,-0.1236 8.03579,-0.11908 11.91061,0.0146 6.95407,0.23466 13.89408,0.87174 20.77444,1.9084 1.43778,0.2249 3.16415,0.50054 4.59349,0.75745 3.2738,0.58309 6.52821,1.263 9.70534,2.01208 7.31515,1.7309 14.62497,3.97794 21.58789,6.61133 13.33591,5.05326 26.04615,11.75131 37.75977,19.88476 6.45066,4.48432 12.76014,9.51575 18.60782,14.87574 5.8068,5.31317 11.40974,11.16211 16.51307,17.26256 14.97679,17.84363 26.45398,38.54598 34.06465,60.5453 2.57397,7.43947 4.77824,15.21073 6.49198,22.97 1.55123,6.95483 2.72795,13.99165 4.433,20.91175 0.64355,2.23418 1.17082,4.71508 2.92854,6.37215 1.33731,1.22303 3.44648,1.03828 4.80237,-0.0544 2.33405,-1.78269 3.94072,-4.30669 5.66714,-6.64085 4.89184,-7.0633 9.69779,-14.18624 14.59236,-21.24815 2.65952,-3.86602 5.32072,-7.73088 7.97915,-11.59765 -3.29145,-9.33626 -6.48364,-18.70851 -9.85067,-28.01738 -10.06704,-27.2909 -24.35563,-53.21051 -43.46446,-75.23365 -15.86397,-18.35673 -35.05887,-33.8419 -56.44413,-45.31509 -23.85399,-12.87793 -50.23133,-20.74063 -77.05319,-24.302 -13.223,-1.78549 -26.57387,-2.49354 -39.91248,-2.46989 -8.35754,-0.063 -16.62553,-0.20643 -24.95501,-0.79396 -4.43267,-0.32036 -9.0029,-0.78544 -13.44116,-1.55163 -0.95042,-0.17044 -2.16539,-0.39443 -3.21092,-0.61731 -5.96075,-1.22732 -11.72102,-3.31584 -17.15579,-6.04388 -5.7185,-2.68087 -11.50178,-5.43519 -17.72022,-6.73641 -1.94272,-0.39454 -3.92802,-0.59592 -5.91111,-0.54185 z m 210.41406,27.54492 c 5.40238,4.24096 10.8952,8.45725 16.20249,12.69992 11.0718,8.99397 21.86919,18.31978 32.59551,27.72036 8.03479,6.75499 16.83049,12.5846 26.0429,17.60389 5.41345,2.92642 11.03763,5.52932 16.97825,7.19145 5.5747,1.6655 11.10622,3.53698 16.81137,4.7188 2.8774,0.53825 6.157,0.95115 8.74448,-0.74496 2.5718,-1.72864 3.61969,-4.81751 4.72949,-7.56216 0.76072,-2.18181 1.67234,-4.32972 3.07263,-6.18669 3.39496,-4.67986 7.75354,-8.62456 12.55356,-11.82464 3.23325,-2.05867 6.69576,-3.72425 10.035,-5.6003 4.28388,-2.3248 8.56774,-4.64965 12.85151,-6.97465 -11.64581,-1.07883 -23.29831,-2.0903 -34.93978,-3.21277 -9.82888,-1.11642 -19.61467,-3.46513 -28.90983,-6.60364 -6.54498,-2.20419 -12.90584,-4.94069 -19.0149,-8.16048 -10.97912,-5.37775 -22.71125,-9.13015 -34.65623,-11.66212 -6.09138,-1.30138 -12.27375,-2.10995 -18.47506,-2.65638 -10.02223,-0.9992 -20.04449,-1.99814 -30.0667,-2.99758 1.8151,1.41732 3.6302,2.83464 5.44531,4.25195 z m 236.65625,15.99219 c -2.03001,0.2491 -3.89679,1.19544 -5.79268,1.91413 -9.77518,4.10308 -19.32499,8.71561 -28.87269,13.31748 -13.18011,6.41007 -26.27577,12.9944 -39.29353,19.72781 -5.91291,3.1362 -11.89663,6.19615 -17.43198,9.97768 -2.08208,1.5296 -4.41195,3.15561 -5.30425,5.69763 -0.68437,1.94392 0.32195,4.03665 1.82749,5.29031 2.18401,1.85734 4.71065,3.25623 7.05709,4.89332 4.41139,2.9683 8.86202,5.75127 12.98733,9.1284 1.6088,1.43584 3.5036,2.9886 3.85348,5.24641 0.17164,2.3141 -1.10888,4.39952 -2.1346,6.37739 -2.67246,4.63161 -5.56712,9.173 -8.34414,13.70415 -16.40314,26.37101 -34.10508,51.86782 -52.84462,76.62214 -17.45658,22.99584 -35.8275,45.4366 -55.50181,66.6449 -6.46241,6.93848 -13.0798,13.73472 -19.91994,20.302 -8.75228,8.3149 -17.90763,16.51112 -27.96442,23.33618 -5.70195,3.78076 -11.61653,7.24505 -17.17958,11.23223 -1.93208,1.50654 -4.14838,3.09388 -4.84818,5.57026 -0.57081,2.07669 0.69619,4.11039 2.23242,5.41016 3.15898,2.68008 6.82735,4.66022 10.27617,6.93089 5.73161,3.67139 11.81457,6.88263 18.29571,9.01012 2.52339,0.81503 5.26691,1.42025 7.88156,0.64581 4.53278,-1.23862 8.4809,-3.93295 12.28724,-6.59533 8.61676,-6.30052 16.40528,-13.6422 24.00148,-21.11775 15.85271,-15.78419 30.63129,-32.60672 44.98685,-49.75082 22.53681,-27.03467 43.89347,-55.04921 64.19703,-83.79609 8.17122,-11.54288 16.08438,-23.2648 23.90871,-35.04497 4.62603,-6.86351 9.25919,-13.66853 14.15337,-20.37173 1.24287,-1.6791 2.47425,-3.37081 3.82828,-4.96287 5.40562,2.81232 10.57577,6.05256 15.7558,9.25496 5.14796,3.22097 10.35342,6.45096 16.02998,8.6654 1.62809,0.56057 3.55664,1.3282 5.19547,0.41469 0.97229,-0.55703 1.23424,-1.71625 1.19121,-2.76092 0.30022,-8.01855 0.17799,-16.04642 0.15538,-24.06899 -0.19469,-23.17424 -0.61043,-46.34845 -1.32157,-69.51209 -0.23019,-6.16606 -0.34536,-12.34323 -0.878,-18.4923 -0.0938,-0.80742 -0.21355,-1.76378 -0.79864,-2.33163 -0.51374,-0.30795 -1.05348,-0.58306 -1.67142,-0.50896 z m -283.90821,48.89649 c -7.56632,0.34293 -14.72872,3.30725 -21.3056,6.88049 -10.21793,5.66573 -19.36796,13.04557 -28.02143,20.84582 -13.0818,11.89372 -25.01346,24.9932 -36.39963,38.50187 -18.57028,22.1213 -35.63565,45.46362 -51.92536,69.30101 -19.76529,28.97508 -38.29166,58.77875 -56.06621,89.01152 -0.78868,1.18118 -1.47618,2.64531 -2.84426,3.23829 -1.55632,0.28081 -3.0369,-0.57479 -4.42188,-1.17549 -5.55117,-2.81981 -10.68081,-6.38302 -16.16644,-9.3232 -3.51911,-1.89575 -7.04212,-3.85403 -10.83356,-5.15727 -1.10034,-0.37919 -2.53078,-0.4741 -3.28906,0.58203 -1.03005,1.42736 -1.11378,3.28303 -1.41684,4.96394 -0.95547,7.54456 -1.23644,15.15422 -1.5531,22.74672 -0.76096,20.35212 -0.49705,40.72253 -0.54569,61.08427 0,11.32486 0,22.64973 0,33.9746 24.15616,-12.71858 48.34927,-25.36861 72.47951,-38.13426 7.82675,-4.22161 15.73403,-8.32665 23.23741,-13.11147 2.57346,-1.75097 5.33242,-3.47313 7.09363,-6.10973 1.07586,-1.60609 1.12151,-3.84042 -0.0568,-5.40626 -1.65737,-2.26229 -4.218,-3.59028 -6.45763,-5.18772 -4.31543,-2.92605 -8.74809,-5.69472 -12.86053,-8.90798 -0.36377,-0.28942 -0.99382,-0.80937 -1.44124,-1.21173 -2.18579,-1.91157 -4.29588,-4.40803 -4.30743,-7.46901 -0.0161,-3.65113 1.61676,-7.03872 3.16273,-10.26066 3.56684,-6.97658 7.85809,-13.5482 12.03209,-20.16963 12.38135,-19.38079 24.71936,-38.79227 37.53827,-57.8925 12.69957,-18.97721 25.74642,-37.72744 39.51558,-55.90858 8.96895,-11.82167 18.30803,-23.47335 28.21289,-34.57422 4.03024,-4.49572 8.30837,-9.08065 12.57393,-13.35004 6.19641,-6.21863 12.68689,-12.15613 19.58623,-17.58941 1.19044,-0.91909 2.55532,-1.97969 3.83838,-2.91987 4.95767,-3.70729 10.22786,-6.9679 15.60214,-10.03155 3.93943,-2.37798 8.05172,-4.53761 11.62263,-7.46643 1.59999,-1.32781 3.1048,-3.31978 2.61653,-5.51965 -0.61283,-2.47544 -2.94581,-3.92579 -4.95312,-5.21484 -4.25339,-2.52211 -8.72255,-4.65407 -13.1228,-6.90252 -3.44954,-1.65016 -7.31918,-2.28179 -11.1233,-2.13654 z m -62.48828,128.33593 c -9.789,15.25353 -19.57855,30.50671 -29.36523,45.76172 2.8347,8.46145 5.57872,16.95424 8.47461,25.39453 4.96662,13.70258 12.04577,26.55063 20.02815,38.71159 11.23609,17.01568 24.36748,32.75016 38.7987,47.14326 12.08142,11.96704 25.09158,23.08285 39.38038,32.34168 8.82377,5.65443 18.16331,10.70859 28.24533,13.71697 4.6119,1.37589 9.40504,2.19874 14.22515,2.19712 2.42223,0.2289 4.96076,1.08105 6.62307,2.93235 0.68675,0.83594 1.05006,2.19061 0.13086,3.00781 -1.81746,1.73908 -4.34992,2.40639 -6.71459,3.04999 -7.05651,1.6534 -14.34652,1.92681 -21.56657,2.00568 -7.68997,0.0679 -15.36574,-0.45613 -23.03666,-0.91931 -15.28665,-0.7957 -30.80521,-0.66826 -45.78222,2.8393 -12.21695,2.80377 -23.7661,8.01814 -34.46476,14.48262 -8.50284,5.03253 -16.41121,10.98218 -24.76251,16.25015 -2.1051,1.21891 -4.22236,2.652 -6.6766,3.01423 -1.6638,0.20847 -2.73219,-1.34362 -3.50586,-2.57617 -2.32558,-4.03006 -3.87954,-8.43989 -5.7434,-12.68964 -4.31346,-10.224 -8.97169,-20.38974 -15.23046,-29.59154 -4.23293,-6.1229 -9.36334,-11.94063 -16.09854,-15.35034 -5.36325,-2.76045 -11.62004,-3.483 -17.53696,-2.50448 -8.13185,1.29243 -15.60262,5.02225 -22.71803,9.00406 -8.05436,4.40321 -16.10751,8.80863 -24.16284,13.21006 8.6096,2.80371 17.25332,5.5044 25.83925,8.37965 6.47858,2.27368 13.11829,4.82952 18.23091,9.57114 4.99647,4.64495 8.2132,10.78945 11.19388,16.83357 2.836,5.81406 5.23691,11.84028 8.4093,17.48802 5.35612,9.6879 11.90253,18.86596 20.25635,26.20223 4.45648,3.86582 9.53903,7.1409 15.23087,8.83489 5.13942,1.68963 10.80744,2.58782 16.07916,0.94517 5.68726,-1.72433 10.25736,-5.7962 14.27662,-10.01583 8.01197,-8.59206 16.7914,-16.72695 27.23518,-22.27777 5.39366,-2.89496 11.16647,-5.05163 17.09028,-6.5763 0.85245,-0.21284 1.97745,-0.49067 2.93952,-0.70284 8.08343,-1.80124 16.39548,-2.59876 24.60404,-2.99374 8.13707,-0.3841 16.37906,-0.32756 24.5827,-0.19584 11.38897,0.0991 22.81373,0.12692 34.15161,-1.08681 9.06356,-0.99804 18.23523,-2.98695 26.16353,-7.67311 8.13999,-4.74517 14.4311,-11.96497 20.08985,-19.36719 0.88674,-1.15966 1.76776,-2.26418 2.75231,-3.41772 3.73663,-4.44444 8.29912,-8.33751 13.73729,-10.51236 5.21117,-2.18018 10.83153,-2.92865 16.34984,-3.79144 6.37705,-1.06055 12.8258,-1.99525 18.97078,-4.07173 4.11973,-1.3914 8.02545,-3.77354 10.57604,-7.36431 3.1404,-4.34902 4.71913,-9.55991 6.32602,-14.61357 1.51151,-5.0193 2.88535,-10.09302 4.90036,-14.94288 2.28257,-5.69362 5.05652,-11.31296 8.11783,-16.5438 1.99156,-3.39071 4.07858,-6.60931 6.46245,-9.77767 2.93744,-3.94892 6.47858,-7.37319 9.43202,-11.31607 4.05075,-5.25306 7.69748,-11.16528 8.64654,-17.84767 0.88794,-5.95455 -0.726,-11.97817 -3.27127,-17.33499 -2.34648,-5.04517 -5.49347,-9.64981 -8.54572,-14.28209 -3.2967,-5.26619 -6.28747,-10.78328 -8.27871,-16.68566 -0.53452,-1.57547 -0.83894,-3.22362 -0.78116,-4.89084 -0.13778,-2.47785 -0.46223,-5.30984 -2.46884,-7.02712 -1.70414,-1.4498 -4.21101,-1.10295 -6.03494,-0.073 -3.54391,1.96575 -6.29001,5.04141 -8.96404,8.02452 -3.77402,4.38556 -7.27365,9.0072 -10.5786,13.75405 -2.27085,3.39832 -4.52814,7.19217 -4.38596,11.42479 0.15727,4.40444 2.42204,8.3263 4.24994,12.2178 1.32476,2.87472 2.85791,5.9036 2.59446,9.1616 -0.42312,3.37262 -2.48406,6.21577 -4.32882,8.96376 -2.41601,3.38324 -4.95787,6.68393 -7.07326,10.27109 -4.42513,7.35274 -8.32906,15.04293 -11.38264,23.0685 -0.9272,2.63199 -1.88096,5.26596 -3.20161,7.73181 -0.26254,0.50851 -0.69481,1.286 -1.05513,1.88381 -3.43637,5.8493 -8.7441,10.602 -15.03553,13.18175 -8.00436,3.33479 -16.94373,3.56164 -25.43137,2.39077 -11.58229,-1.63201 -22.68324,-5.71108 -33.18938,-10.75007 -3.0479,-1.47012 -6.07469,-3.04866 -8.96914,-4.66153 -4.94506,-2.74531 -9.85375,-5.7936 -14.48937,-8.90215 -18.65238,-12.60788 -35.48008,-27.87714 -50.04543,-45.03369 -2.61978,-3.08925 -5.1514,-6.24879 -7.58324,-9.42027 -1.33123,-1.75814 -2.77084,-3.68544 -4.09574,-5.54479 -11.29184,-15.78401 -20.68852,-33.08581 -26.45644,-51.66717 -1.95231,-6.13653 -3.26178,-12.44759 -4.499,-18.75947 -1.73953,-8.59714 -3.47902,-17.19428 -5.21859,-25.79141 -0.88867,1.38411 -1.77734,2.76823 -2.66602,4.15234 z" /><path
       style="fill:#0e5239;fill-opacity:1"
       d="m 284.99545,767.46136 c -12.99617,-4.75083 -27.2967,-21.33302 -36.83218,-42.7088 -11.23254,-25.18008 -15.85245,-29.57538 -38.89315,-37.00222 l -16.85437,-5.43277 22.7993,-12.46789 c 30.10242,-16.46162 46.23543,-7.43067 64.97092,36.36944 10.56425,24.69724 7.46036,24.20937 35.21109,5.5345 30.22036,-20.3368 51.77567,-25.56694 93.72848,-22.74211 33.81779,2.27706 53.17897,-1.86506 47.98674,-10.26626 -1.40795,-2.27811 -5.51117,-4.14202 -9.11827,-4.14202 -41.24909,0 -119.40544,-76.14901 -139.14107,-135.56743 l -7.1862,-21.63564 14.42455,-22.47871 14.42456,-22.47872 5.4155,26.75678 c 20.70851,102.31618 170.97433,198.58132 196.13439,125.65004 3.23463,-9.37618 10.40045,-23.11273 15.92405,-30.52568 9.07703,-12.18183 9.47297,-14.63019 4.11686,-25.45741 -5.43206,-10.98076 -4.95481,-13.25269 5.72533,-27.25508 12.83163,-16.82313 19.33783,-19.36885 19.33783,-7.56641 0,4.24013 4.9059,14.92903 10.902,23.75311 14.55,21.41225 13.7519,31.91866 -3.9099,51.46816 -8.6867,9.61509 -17.7201,26.3985 -21.8442,40.5849 -7.3896,25.41947 -8.60883,26.36241 -40.4897,31.31438 -13.88868,2.15729 -21.00772,6.42147 -29.66091,17.76639 -18.32486,24.02513 -30.69023,28.13309 -82.20133,27.30853 -49.44713,-0.79153 -68.94703,6.04246 -94.11458,32.98363 -10.34963,11.07899 -17.7082,13.04344 -30.85574,8.23729 z M 158.53192,616.02612 c 0,-32.54064 1.47178,-59.15746 3.27061,-59.1485 1.79884,0.009 10.08511,4.1705 18.41394,9.24784 14.2365,8.67873 15.41161,8.77457 19.62365,1.60053 89.107,-151.76935 168.13569,-237.91764 202.2771,-220.49999 22.10725,11.27828 22.14609,10.17744 -0.83419,23.64478 -36.32605,21.28848 -77.88066,71.88293 -143.10873,174.24077 -33.99454,53.34526 -33.6884,48.65956 -4.47149,68.44032 9.33811,6.3222 7.90653,7.46366 -42.75464,34.09014 l -52.41625,27.54891 z m 271.46051,-11.69757 c -17.54835,-11.23827 -18.12453,-9.13562 6.90455,-25.19674 39.37781,-25.26867 111.80167,-112.07285 161.89823,-194.04438 11.4315,-18.7051 12.2281,-16.85511 -15.0628,-34.98209 -8.003,-5.31564 -4.733,-7.7685 40.7973,-30.60278 27.2236,-13.65318 50.1674,-24.1541 50.9861,-23.33538 1.1867,1.18672 3.1013,100.60514 2.1871,113.57146 -0.1289,1.82892 -8.0449,-1.60522 -17.591,-7.63142 -9.5461,-6.0262 -18.0889,-10.95673 -18.9839,-10.95673 -0.895,0 -11.0613,14.22714 -22.5918,31.61588 -63.61104,95.92924 -146.83897,190.91681 -167.10157,190.71204 -3.99826,-0.0404 -13.64726,-4.15785 -21.44221,-9.14986 z m 69.50909,-147.1618 C 479.48471,360.25493 397.16276,297.28007 302.4387,306.41712 c -22.3637,2.1572 -33.02528,0.94924 -50.52271,-5.72423 l -22.17744,-8.45841 -13.26026,11.84804 c -7.29314,6.51642 -15.48417,12.58934 -18.20229,13.49538 -3.64355,1.21452 -3.51428,7.65787 0.49199,24.52335 6.06417,25.52871 10.61172,27.78505 52.33,25.96436 17.15988,-0.7489 22.54872,1.03612 32.17062,10.6563 l 11.55796,11.55588 -12.02126,15.76069 c -11.06704,14.50962 -12.46778,15.15003 -17.64641,8.06777 -4.30177,-5.88308 -12.21761,-7.78494 -33.64705,-8.08407 -44.79612,-0.62528 -65.60619,-14.2988 -69.18862,-45.46125 -1.51245,-13.15632 -4.22937,-31.32385 -6.0376,-40.37229 -3.43113,-17.16945 5.35825,-33.69763 17.91978,-33.69763 3.08007,0 14.66947,-7.84946 25.75422,-17.44324 22.77528,-19.71187 27.83233,-20.55471 52.32974,-8.72163 13.60535,6.57185 27.1037,8.45824 61.35007,8.57366 104.36932,0.35173 179.61436,53.49114 213.68155,150.9058 l 7.73352,22.11389 -14.03833,20.40402 c -17.17385,24.96134 -15.19595,25.43541 -21.51466,-5.15676 z m 29.08997,-116.4611 c -11.17465,-3.44039 -29.72198,-14.61933 -41.42771,-24.96952 -11.65706,-10.30715 -27.08175,-23.3382 -34.27709,-28.95789 l -13.08243,-10.21762 27.27148,2.71964 c 16.78353,1.67374 36.06975,7.29567 50.14933,14.61853 14.09756,7.33222 32.91966,12.81485 49.04274,14.28552 l 26.1648,2.38663 -14.3599,7.79255 c -7.898,4.28591 -16.1895,12.60448 -18.4256,18.48572 -4.64925,12.22858 -4.08846,12.15895 -31.05562,3.85644 z"
       id="path1-7" /></g></svg>
